<svg width="79" height="31" viewBox="0 0 79 31" fill="none" xmlns="http://www.w3.org/2000/svg">
<rect x="67.5" y="20.5" width="11" height="10" fill="black" stroke="black"/>
<path d="M2.05 24V11.85H3.75L3.925 13.6H4C4.53333 13.0167 5.11667 12.5333 5.75 12.15C6.38333 11.75 7.05833 11.55 7.775 11.55C8.70833 11.55 9.43333 11.7583 9.95 12.175C10.4833 12.575 10.875 13.1417 11.125 13.875C11.7583 13.1917 12.4 12.6333 13.05 12.2C13.7 11.7667 14.3917 11.55 15.125 11.55C16.375 11.55 17.3 11.9583 17.9 12.775C18.5167 13.575 18.825 14.75 18.825 16.3V24H16.775V16.575C16.775 15.4417 16.5917 14.6167 16.225 14.1C15.8583 13.5833 15.2917 13.325 14.525 13.325C13.625 13.325 12.6083 13.95 11.475 15.2V24H9.425V16.575C9.425 15.4417 9.24167 14.6167 8.875 14.1C8.50833 13.5833 7.93333 13.325 7.15 13.325C6.25 13.325 5.23333 13.95 4.1 15.2V24H2.05ZM22.7775 24V11.85H24.8275V24H22.7775ZM23.8275 9.35C23.4275 9.35 23.0942 9.23333 22.8275 9C22.5775 8.75 22.4525 8.41667 22.4525 8C22.4525 7.6 22.5775 7.275 22.8275 7.025C23.0942 6.775 23.4275 6.65 23.8275 6.65C24.2275 6.65 24.5525 6.775 24.8025 7.025C25.0692 7.275 25.2025 7.6 25.2025 8C25.2025 8.41667 25.0692 8.75 24.8025 9C24.5525 9.23333 24.2275 9.35 23.8275 9.35ZM28.9299 24V11.85H30.6299L30.8049 13.6H30.8799C31.4632 13.0167 32.0799 12.5333 32.7299 12.15C33.3799 11.75 34.1215 11.55 34.9549 11.55C36.2382 11.55 37.1715 11.9583 37.7549 12.775C38.3549 13.575 38.6549 14.75 38.6549 16.3V24H36.6049V16.575C36.6049 15.4417 36.4216 14.6167 36.0549 14.1C35.6882 13.5833 35.1049 13.325 34.3049 13.325C33.6882 13.325 33.1299 13.4833 32.6299 13.8C32.1465 14.1167 31.5965 14.5833 30.9799 15.2V24H28.9299ZM42.6018 24V11.85H44.3018L44.4768 13.6H44.5518C45.1351 13.0167 45.7518 12.5333 46.4018 12.15C47.0518 11.75 47.7934 11.55 48.6268 11.55C49.9101 11.55 50.8434 11.9583 51.4268 12.775C52.0268 13.575 52.3268 14.75 52.3268 16.3V24H50.2768V16.575C50.2768 15.4417 50.0934 14.6167 49.7268 14.1C49.3601 13.5833 48.7768 13.325 47.9768 13.325C47.3601 13.325 46.8018 13.4833 46.3018 13.8C45.8184 14.1167 45.2684 14.5833 44.6518 15.2V24H42.6018ZM59.0736 24.3C58.057 24.3 57.207 24 56.5236 23.4C55.857 22.7833 55.5236 21.9333 55.5236 20.85C55.5236 19.5167 56.1153 18.5 57.2986 17.8C58.4986 17.0833 60.3903 16.5833 62.9736 16.3C62.9736 15.7833 62.8986 15.2917 62.7486 14.825C62.6153 14.3583 62.3653 13.9833 61.9986 13.7C61.6486 13.4 61.1403 13.25 60.4736 13.25C59.7736 13.25 59.1153 13.3833 58.4986 13.65C57.882 13.9167 57.332 14.2167 56.8486 14.55L56.0486 13.125C56.6153 12.7583 57.307 12.4083 58.1236 12.075C58.957 11.725 59.857 11.55 60.8236 11.55C62.307 11.55 63.382 12.0083 64.0486 12.925C64.7153 13.825 65.0486 15.0333 65.0486 16.55V24H63.3486L63.1736 22.55H63.0986C62.532 23.0167 61.907 23.425 61.2236 23.775C60.557 24.125 59.8403 24.3 59.0736 24.3ZM59.6736 22.65C60.257 22.65 60.807 22.5083 61.3236 22.225C61.8403 21.9417 62.3903 21.5417 62.9736 21.025V17.65C60.957 17.9 59.5403 18.275 58.7236 18.775C57.9236 19.275 57.5236 19.9167 57.5236 20.7C57.5236 21.3833 57.732 21.8833 58.1486 22.2C58.5653 22.5 59.0736 22.65 59.6736 22.65Z" fill="black"/>
</svg>
