<svg fill="#000000" xmlns="http://www.w3.org/2000/svg"  viewBox="0 0 30 30" width="30px" height="30px"><path d="M 15 2 C 7.8321388 2 2 7.832144 2 15 C 2 22.167856 7.8321388 28 15 28 C 22.167861 28 28 22.167856 28 15 C 28 7.832144 22.167861 2 15 2 z M 15 4 C 21.086982 4 26 8.9130223 26 15 C 26 21.086978 21.086982 26 15 26 C 8.9130183 26 4 21.086978 4 15 C 4 8.9130223 8.9130183 4 15 4 z M 16.845703 10.660156 C 14.987703 10.660156 13.997609 11.975859 13.474609 13.380859 C 13.474609 13.380859 12.151922 16.807656 12.044922 17.097656 C 12.038922 16.826656 11.84375 13.419922 11.84375 13.419922 C 11.73075 11.706922 10.168344 10.667969 8.9023438 10.667969 L 10.425781 19.964844 C 12.371781 19.958844 13.418797 18.640188 13.966797 17.242188 C 13.966797 17.242188 15.130641 14.219078 15.181641 14.080078 C 15.194641 14.212078 16.019531 19.964844 16.019531 19.964844 C 17.965531 19.964844 19.018937 18.730813 19.585938 17.382812 L 22.306641 10.662109 C 20.379641 10.660109 19.364797 11.976859 18.841797 13.380859 C 18.841797 13.380859 17.751922 16.794984 17.669922 17.083984 C 17.638922 16.793984 16.845703 10.660156 16.845703 10.660156 z"/></svg>